<svg id="visual" viewBox="0 0 900 300" width="900" height="300" xmlns="http://www.w3.org/2000/svg" xmlns:xlink="http://www.w3.org/1999/xlink" version="1.1"><rect x="0" y="0" width="900" height="300" fill="#0066FF"></rect><path d="M0 129L15 127C30 125 60 121 90 114C120 107 150 97 180 86.8C210 76.7 240 66.3 270 66.5C300 66.7 330 77.3 360 92.3C390 107.3 420 126.7 450 132C480 137.3 510 128.7 540 126.2C570 123.7 600 127.3 630 120.3C660 113.3 690 95.7 720 95.7C750 95.7 780 113.3 810 117.3C840 121.3 870 111.7 885 106.8L900 102L900 301L885 301C870 301 840 301 810 301C780 301 750 301 720 301C690 301 660 301 630 301C600 301 570 301 540 301C510 301 480 301 450 301C420 301 390 301 360 301C330 301 300 301 270 301C240 301 210 301 180 301C150 301 120 301 90 301C60 301 30 301 15 301L0 301Z" fill="#0066ff"></path><path d="M0 107L15 105.3C30 103.7 60 100.3 90 109.8C120 119.3 150 141.7 180 145.8C210 150 240 136 270 134.7C300 133.3 330 144.7 360 153.2C390 161.7 420 167.3 450 165.5C480 163.7 510 154.3 540 154.2C570 154 600 163 630 158.5C660 154 690 136 720 127.3C750 118.7 780 119.3 810 126.8C840 134.3 870 148.7 885 155.8L900 163L900 301L885 301C870 301 840 301 810 301C780 301 750 301 720 301C690 301 660 301 630 301C600 301 570 301 540 301C510 301 480 301 450 301C420 301 390 301 360 301C330 301 300 301 270 301C240 301 210 301 180 301C150 301 120 301 90 301C60 301 30 301 15 301L0 301Z" fill="#008eff"></path><path d="M0 181L15 174C30 167 60 153 90 155C120 157 150 175 180 177.8C210 180.7 240 168.3 270 171C300 173.7 330 191.3 360 196.3C390 201.3 420 193.7 450 190.5C480 187.3 510 188.7 540 191.2C570 193.7 600 197.3 630 190.5C660 183.7 690 166.3 720 167.2C750 168 780 187 810 185.8C840 184.7 870 163.3 885 152.7L900 142L900 301L885 301C870 301 840 301 810 301C780 301 750 301 720 301C690 301 660 301 630 301C600 301 570 301 540 301C510 301 480 301 450 301C420 301 390 301 360 301C330 301 300 301 270 301C240 301 210 301 180 301C150 301 120 301 90 301C60 301 30 301 15 301L0 301Z" fill="#00aeff"></path><path d="M0 185L15 192.7C30 200.3 60 215.7 90 221.8C120 228 150 225 180 223.8C210 222.7 240 223.3 270 225.8C300 228.3 330 232.7 360 232.7C390 232.7 420 228.3 450 223.5C480 218.7 510 213.3 540 206.3C570 199.3 600 190.7 630 194.8C660 199 690 216 720 218.3C750 220.7 780 208.3 810 206C840 203.7 870 211.3 885 215.2L900 219L900 301L885 301C870 301 840 301 810 301C780 301 750 301 720 301C690 301 660 301 630 301C600 301 570 301 540 301C510 301 480 301 450 301C420 301 390 301 360 301C330 301 300 301 270 301C240 301 210 301 180 301C150 301 120 301 90 301C60 301 30 301 15 301L0 301Z" fill="#4bc8f2"></path><path d="M0 262L15 260.2C30 258.3 60 254.7 90 248.5C120 242.3 150 233.7 180 235.7C210 237.7 240 250.3 270 256.3C300 262.3 330 261.7 360 260.5C390 259.3 420 257.7 450 259.3C480 261 510 266 540 262.2C570 258.3 600 245.7 630 239.8C660 234 690 235 720 241.7C750 248.3 780 260.7 810 266.2C840 271.7 870 270.3 885 269.7L900 269L900 301L885 301C870 301 840 301 810 301C780 301 750 301 720 301C690 301 660 301 630 301C600 301 570 301 540 301C510 301 480 301 450 301C420 301 390 301 360 301C330 301 300 301 270 301C240 301 210 301 180 301C150 301 120 301 90 301C60 301 30 301 15 301L0 301Z" fill="#92dce5"></path></svg>