<svg id="visual" viewBox="0 0 900 300" width="900" height="300" xmlns="http://www.w3.org/2000/svg" xmlns:xlink="http://www.w3.org/1999/xlink" version="1.1"><rect x="0" y="0" width="900" height="300" fill="#001220"></rect><path d="M0 112L15 104.5C30 97 60 82 90 75C120 68 150 69 180 78.8C210 88.7 240 107.3 270 112.8C300 118.3 330 110.7 360 105.2C390 99.7 420 96.3 450 101.8C480 107.3 510 121.7 540 125C570 128.3 600 120.7 630 121.5C660 122.3 690 131.7 720 129.7C750 127.7 780 114.3 810 105C840 95.7 870 90.3 885 87.7L900 85L900 301L885 301C870 301 840 301 810 301C780 301 750 301 720 301C690 301 660 301 630 301C600 301 570 301 540 301C510 301 480 301 450 301C420 301 390 301 360 301C330 301 300 301 270 301C240 301 210 301 180 301C150 301 120 301 90 301C60 301 30 301 15 301L0 301Z" fill="#001d32"></path><path d="M0 156L15 154.3C30 152.7 60 149.3 90 147.5C120 145.7 150 145.3 180 145.3C210 145.3 240 145.7 270 137.3C300 129 330 112 360 116.5C390 121 420 147 450 149.8C480 152.7 510 132.3 540 132.2C570 132 600 152 630 156.3C660 160.7 690 149.3 720 137.8C750 126.3 780 114.7 810 113.3C840 112 870 121 885 125.5L900 130L900 301L885 301C870 301 840 301 810 301C780 301 750 301 720 301C690 301 660 301 630 301C600 301 570 301 540 301C510 301 480 301 450 301C420 301 390 301 360 301C330 301 300 301 270 301C240 301 210 301 180 301C150 301 120 301 90 301C60 301 30 301 15 301L0 301Z" fill="#003263"></path><path d="M0 210L15 208.5C30 207 60 204 90 195.3C120 186.7 150 172.3 180 161.7C210 151 240 144 270 146C300 148 330 159 360 169C390 179 420 188 450 184.8C480 181.7 510 166.3 540 158.8C570 151.3 600 151.7 630 149.3C660 147 690 142 720 143.2C750 144.3 780 151.7 810 160C840 168.3 870 177.7 885 182.3L900 187L900 301L885 301C870 301 840 301 810 301C780 301 750 301 720 301C690 301 660 301 630 301C600 301 570 301 540 301C510 301 480 301 450 301C420 301 390 301 360 301C330 301 300 301 270 301C240 301 210 301 180 301C150 301 120 301 90 301C60 301 30 301 15 301L0 301Z" fill="#004596"></path><path d="M0 242L15 237.2C30 232.3 60 222.7 90 216C120 209.3 150 205.7 180 201.7C210 197.7 240 193.3 270 191.8C300 190.3 330 191.7 360 197.2C390 202.7 420 212.3 450 216.7C480 221 510 220 540 214C570 208 600 197 630 195.7C660 194.3 690 202.7 720 202.5C750 202.3 780 193.7 810 189.3C840 185 870 185 885 185L900 185L900 301L885 301C870 301 840 301 810 301C780 301 750 301 720 301C690 301 660 301 630 301C600 301 570 301 540 301C510 301 480 301 450 301C420 301 390 301 360 301C330 301 300 301 270 301C240 301 210 301 180 301C150 301 120 301 90 301C60 301 30 301 15 301L0 301Z" fill="#0056ca"></path><path d="M0 230L15 230C30 230 60 230 90 229.2C120 228.3 150 226.7 180 233.2C210 239.7 240 254.3 270 257.3C300 260.3 330 251.7 360 251.5C390 251.3 420 259.7 450 257.3C480 255 510 242 540 239.5C570 237 600 245 630 251.2C660 257.3 690 261.7 720 258.3C750 255 780 244 810 239.5C840 235 870 237 885 238L900 239L900 301L885 301C870 301 840 301 810 301C780 301 750 301 720 301C690 301 660 301 630 301C600 301 570 301 540 301C510 301 480 301 450 301C420 301 390 301 360 301C330 301 300 301 270 301C240 301 210 301 180 301C150 301 120 301 90 301C60 301 30 301 15 301L0 301Z" fill="#0066ff"></path></svg>